<svg width="22" height="21" viewBox="0 0 22 21" fill="none" xmlns="http://www.w3.org/2000/svg">
<path d="M0.688049 20.8905L2.14571 15.5973C1.24452 14.0436 0.771766 12.2841 0.776691 10.4854C0.776691 4.84914 5.38603 0.266602 11.0443 0.266602C13.7922 0.266602 16.3726 1.33014 18.308 3.26118C20.2482 5.19222 21.3168 7.7604 21.3119 10.4903C21.3119 16.1266 16.7026 20.7091 11.0394 20.7091H11.0345C9.3158 20.7091 7.62669 20.2778 6.12471 19.4643L0.688049 20.8905ZM6.38571 17.6165L6.69596 17.8028C8.00588 18.5772 9.50785 18.984 11.0394 18.9889H11.0443C15.7472 18.9889 19.5785 15.1807 19.5785 10.4952C19.5785 8.22601 18.6921 6.09402 17.0818 4.48646C15.4714 2.87889 13.3244 1.99669 11.0443 1.99669C6.34139 1.99179 2.51012 5.79996 2.51012 10.4854C2.51012 12.0881 2.95825 13.6515 3.81512 15.0042L4.01702 15.3277L3.15523 18.4595L6.38571 17.6165Z" fill="white"/>
<path d="M1.04755 20.5326L2.45596 15.4207C1.58432 13.9259 1.12634 12.2252 1.12634 10.4902C1.13126 5.04997 5.5781 0.624268 11.0443 0.624268C13.6986 0.624268 16.1855 1.6535 18.0568 3.51592C19.9281 5.37835 20.9574 7.85831 20.9574 10.4951C20.9574 15.9353 16.5056 20.361 11.0443 20.361H11.0394C9.37982 20.361 7.74981 19.9445 6.302 19.1603L1.04755 20.5326Z" fill="url(#paint0_linear_33_25)"/>
<path d="M0.688049 20.8905L2.14571 15.5973C1.24452 14.0436 0.771766 12.2841 0.776691 10.4854C0.776691 4.84914 5.38603 0.266602 11.0443 0.266602C13.7922 0.266602 16.3726 1.33014 18.308 3.26118C20.2482 5.19222 21.3168 7.7604 21.3119 10.4903C21.3119 16.1266 16.7026 20.7091 11.0394 20.7091H11.0345C9.3158 20.7091 7.62669 20.2778 6.12471 19.4643L0.688049 20.8905ZM6.38571 17.6165L6.69596 17.8028C8.00588 18.5772 9.50785 18.984 11.0394 18.9889H11.0443C15.7472 18.9889 19.5785 15.1807 19.5785 10.4952C19.5785 8.22601 18.6921 6.09402 17.0818 4.48646C15.4714 2.87889 13.3244 1.99669 11.0443 1.99669C6.34139 1.99179 2.51012 5.79996 2.51012 10.4854C2.51012 12.0881 2.95825 13.6515 3.81512 15.0042L4.01702 15.3277L3.15523 18.4595L6.38571 17.6165Z" fill="url(#paint1_linear_33_25)"/>
<path fill-rule="evenodd" clip-rule="evenodd" d="M8.47855 6.21163C8.28649 5.78523 8.08459 5.77543 7.90238 5.77053C7.75465 5.76563 7.58229 5.76562 7.40993 5.76562C7.23757 5.76562 6.9618 5.82934 6.72542 6.0842C6.48905 6.33906 5.82916 6.9566 5.82916 8.21618C5.82916 9.47087 6.75005 10.6863 6.87808 10.8579C7.00612 11.0294 8.65583 13.6907 11.2609 14.7151C13.4277 15.5679 13.8709 15.3963 14.3387 15.3522C14.8066 15.3081 15.8555 14.7347 16.0722 14.1367C16.2839 13.5388 16.2839 13.0291 16.2199 12.9213C16.1559 12.8134 15.9835 12.7497 15.7274 12.6223C15.4714 12.4949 14.2107 11.8773 13.9743 11.7891C13.7379 11.7058 13.5656 11.6617 13.3981 11.9165C13.2258 12.1714 12.7333 12.7448 12.5856 12.9163C12.4379 13.0879 12.2852 13.1075 12.0291 12.9801C11.7731 12.8526 10.9457 12.5831 9.96575 11.7107C9.20245 11.0343 8.68538 10.1962 8.53764 9.94137C8.38991 9.68651 8.52287 9.54928 8.65091 9.42186C8.76417 9.30913 8.90698 9.12289 9.03502 8.97585C9.16306 8.82882 9.20738 8.721 9.2911 8.54946C9.37481 8.37792 9.33542 8.23088 9.2714 8.10346C9.20738 7.98093 8.70508 6.71644 8.47855 6.21163Z" fill="white"/>
<defs>
<linearGradient id="paint0_linear_33_25" x1="11.0019" y1="20.5316" x2="11.0019" y2="0.623571" gradientUnits="userSpaceOnUse">
<stop stop-color="#20B038"/>
<stop offset="1" stop-color="#60D66A"/>
</linearGradient>
<linearGradient id="paint1_linear_33_25" x1="11.002" y1="20.8885" x2="11.002" y2="0.266602" gradientUnits="userSpaceOnUse">
<stop stop-color="#F9F9F9"/>
<stop offset="1" stop-color="white"/>
</linearGradient>
</defs>
</svg>
